<?xml version="1.0" encoding="UTF-8" standalone="no"?>
<svg width="34px" height="34px" viewBox="0 0 34 34" version="1.1" xmlns="http://www.w3.org/2000/svg" xmlns:xlink="http://www.w3.org/1999/xlink" xmlns:sketch="http://www.bohemiancoding.com/sketch/ns">
    <!-- Generator: Sketch 3.2.2 (9983) - http://www.bohemiancoding.com/sketch -->
    <title>men14 + Oval 3</title>
    <desc>Created with Sketch.</desc>
    <defs></defs>
    <g id="Welcome" stroke="none" stroke-width="1" fill="none" fill-rule="evenodd" sketch:type="MSPage">
        <g id="Desktop-HD-4" sketch:type="MSArtboardGroup" transform="translate(-278.000000, -860.000000)">
            <g id="men14-+-Oval-3" sketch:type="MSLayerGroup" transform="translate(279.000000, 861.000000)">
                <g id="men14" transform="translate(6.000000, 6.000000)" fill="#000000" sketch:type="MSShapeGroup">
                    <g id="Group">
                        <circle id="Oval" cx="4.118625" cy="1.95825" r="1.95825"></circle>
                        <path d="M9.46509375,8.1388125 C9.2675625,7.58821875 8.6611875,7.3014375 8.11059375,7.49896875 C7.2253125,7.81659375 6.01715625,8.08696875 5.27690625,7.5796875 C4.9415625,7.34934375 4.73353125,6.974625 4.60753125,6.6136875 C4.83721875,5.80059375 4.4559375,4.916625 3.667125,4.54125 C2.7864375,4.12190625 1.73315625,4.4953125 1.31446875,5.376 C1.21078125,5.59321875 0.30253125,7.6190625 0.30253125,11.697 C0.30253125,12.18 0.4974375,12.618375 0.81375,12.938625 L1.10184375,19.9335938 C1.12546875,20.4677813 1.54940625,20.9153438 2.09540625,20.9494688 C2.680125,20.9862188 3.18346875,20.5419375 3.22021875,19.9565625 L3.69009375,12.3945938 C3.782625,12.1819688 3.8338125,11.9444063 3.8338125,11.6976563 C3.8338125,10.7349375 3.89221875,9.92184375 3.9755625,9.2518125 C4.00246875,9.2715 4.03003125,9.29184375 4.05759375,9.31153125 C4.69875,9.7584375 5.4613125,9.98221875 6.33740625,9.98221875 C7.084875,9.98221875 7.91634375,9.8188125 8.82590625,9.49265625 C9.3765,9.29578125 9.662625,8.68940625 9.46509375,8.1388125 L9.46509375,8.1388125 Z" id="Shape"></path>
                        <circle id="Oval" cx="16.8328125" cy="1.95825" r="1.95825"></circle>
                        <path d="M19.6363125,5.376 C19.2169688,4.4953125 18.1643438,4.12125 17.2836563,4.54125 C16.4948438,4.916625 16.1135625,5.80059375 16.34325,6.6136875 C16.2179063,6.974625 16.009875,7.34934375 15.6732188,7.5796875 C14.933625,8.087625 13.7248125,7.81659375 12.8408438,7.49896875 C12.2895938,7.3014375 11.6825625,7.58821875 11.4863438,8.1388125 C11.2894688,8.68940625 11.5755938,9.29578125 12.1261875,9.4933125 C13.0364063,9.81946875 13.8665625,9.982875 14.6153438,9.982875 C15.4907813,9.982875 16.2533438,9.75909375 16.8964688,9.3121875 C16.9240313,9.2925 16.9515938,9.27215625 16.9785,9.25246875 C17.0611875,9.9225 17.12025,10.7349375 17.12025,11.6976563 C17.12025,11.946375 17.1714375,12.1819688 17.2639688,12.39525 L17.7345,19.9572188 C17.7705938,20.5425938 18.2732813,20.9855625 18.8586563,20.950125 C19.4046563,20.916 19.82925,20.46975 19.852875,19.93425 L20.1403125,12.9392813 C20.4553125,12.6203438 20.650875,12.1819688 20.650875,11.697 C20.64825,7.6190625 19.74,5.59321875 19.6363125,5.376 L19.6363125,5.376 Z" id="Shape"></path>
                        <path d="M10.8169687,12.7660313 C10.752,12.6977813 10.6529062,12.676125 10.5662812,12.7135313 C10.4803125,12.749625 10.4245312,12.8342813 10.4258437,12.9287813 L10.4409375,13.668375 C10.4409375,13.668375 9.32728125,14.1526875 8.64609375,13.3389375 C8.4735,13.132875 8.34028125,12.915 8.2385625,12.7082813 C8.16571875,12.558 8.00559375,12.4759688 7.84284375,12.5022188 C7.68009375,12.5284688 7.55409375,12.6570938 7.531125,12.8211563 C7.4445,13.4413125 7.47928125,14.2019063 7.90453125,14.8883438 C8.83115625,16.3813125 10.5013125,16.6470938 10.5013125,16.6470938 L10.5144375,17.285625 C10.5164062,17.3755313 10.5702187,17.4555938 10.65225,17.490375 C10.7342812,17.5264688 10.8300937,17.5100625 10.8957187,17.4490313 L12.733875,15.7618125 C12.8670937,15.6384375 12.9451875,15.4684688 12.95175,15.2866875 C12.957,15.106875 12.88875,14.9290313 12.7647187,14.7990938 L10.8169687,12.7660313 L10.8169687,12.7660313 Z" id="Shape"></path>
                        <path d="M9.625875,5.551875 C9.69084375,5.620125 9.79059375,5.64046875 9.87721875,5.604375 C9.96384375,5.5689375 10.019625,5.483625 10.0176562,5.38978125 L10.0025625,4.6501875 C10.0025625,4.6501875 11.116875,4.1645625 11.7987187,4.97896875 C11.9706562,5.18503125 12.103875,5.40225 12.20625,5.61028125 C12.2777812,5.7579375 12.4385625,5.84128125 12.6013125,5.8156875 C12.7640625,5.7894375 12.8907187,5.66015625 12.9136875,5.49740625 C13.001625,4.87659375 12.9655312,4.11665625 12.5415937,3.43021875 C11.6149687,1.93528125 9.94415625,1.67015625 9.94415625,1.67015625 L9.93103125,1.03228125 C9.92971875,0.942375 9.87525,0.8623125 9.79321875,0.82753125 C9.7111875,0.79275 9.615375,0.8085 9.54975,0.868875 L7.71290625,2.55675 C7.5796875,2.67946875 7.5009375,2.85075 7.49503125,3.03253125 C7.489125,3.21365625 7.55671875,3.38953125 7.6820625,3.52078125 L9.625875,5.551875 L9.625875,5.551875 Z" id="Shape"></path>
                    </g>
                </g>
                <circle id="Oval-3" stroke="#000000" stroke-width="0.7" sketch:type="MSShapeGroup" cx="16" cy="16" r="16"></circle>
            </g>
        </g>
    </g>
</svg>